# xmcd
#
# Track frame offsets:
#	150
#	17254
#	30873
#	58555
#	109331
#	153722
#	180854
#	205627
#	225081
#	256976
#
# Disc length: 3856
#
# Revision: 1
# Processed by: cddbd v1.5.1PL0 Copyright (c) Steve Scherf et al.
# Submitted via: ExactAudioCopy v0.90b4
# Normalized: r0:DSETVAR1,TDELIM( - )
#
DISCID=650f0e0a
DTITLE=Various Artist - Damned Good Music (DK Side)
DYEAR=2002
DGENRE=Blues
TTITLE0=van Wilks - Vanatized
TTITLE1=Corey Stevens - Back In Timie
TTITLE2=Bugs Henderson - Blue Casino
TTITLE3=Junior Beown - Guit Steel Blues
TTITLE4=Alvin Lee - Help Me Baby
TTITLE5=Jimmy Thackery - Red House
TTITLE6=van Wilks - Soul Of A Man
TTITLE7=Jimmy Thackery - You Got Work To Do
TTITLE8=The Hellecasters - Orange Blossom Special
TTITLE9=Hal Ketchum - Past The Point To Rescue
EXTD=
EXTT0=
EXTT1=
EXTT2=
EXTT3=
EXTT4=
EXTT5=
EXTT6=
EXTT7=
EXTT8=
EXTT9=
PLAYORDER=
